<?xml version="1.0" encoding="UTF-8" standalone="no"?>
<svg
   xmlns:dc="http://purl.org/dc/elements/1.1/"
   xmlns:cc="http://creativecommons.org/ns#"
   xmlns:rdf="http://www.w3.org/1999/02/22-rdf-syntax-ns#"
   xmlns:svg="http://www.w3.org/2000/svg"
   xmlns="http://www.w3.org/2000/svg"
   xmlns:sodipodi="http://sodipodi.sourceforge.net/DTD/sodipodi-0.dtd"
   xmlns:inkscape="http://www.inkscape.org/namespaces/inkscape"
   width="200"
   height="250"
   viewBox="0 0 26.082527 32.6"
   preserveAspectRatio="xMinYMin meet"
   version="1.1"
   id="svg8"
   sodipodi:docname="django.svg"
   inkscape:version="1.0 (4035a4fb49, 2020-05-01)">
  <metadata
     id="metadata14">
    <rdf:RDF>
      <cc:Work
         rdf:about="">
        <dc:format>image/svg+xml</dc:format>
        <dc:type
           rdf:resource="http://purl.org/dc/dcmitype/StillImage" />
        <dc:title />
      </cc:Work>
    </rdf:RDF>
  </metadata>
  <defs
     id="defs12" />
  <sodipodi:namedview
     inkscape:document-rotation="0"
     pagecolor="#ffffff"
     bordercolor="#666666"
     borderopacity="1"
     objecttolerance="10"
     gridtolerance="10"
     guidetolerance="10"
     inkscape:pageopacity="0"
     inkscape:pageshadow="2"
     inkscape:window-width="1366"
     inkscape:window-height="704"
     id="namedview10"
     showgrid="false"
     inkscape:zoom="1.7304383"
     inkscape:cx="53.09658"
     inkscape:cy="124.80754"
     inkscape:window-x="0"
     inkscape:window-y="27"
     inkscape:window-maximized="1"
     inkscape:current-layer="svg8" />
  <g
     fill="#2ba977"
     id="g6"
     transform="matrix(0.07546388,0,0,0.07326962,3.4125629,7.0702203)">
    <path
       d="m 114.784,0 h 53.278 v 244.191 c -27.29,5.162 -47.38,7.193 -69.117,7.193 C 33.873,251.316 0,222.245 0,166.412 0,112.617 35.93,77.704 91.608,77.704 c 8.64,0 15.222,0.68 23.176,2.717 z m 1.867,124.427 c -6.24,-2.038 -11.382,-2.717 -17.965,-2.717 -26.947,0 -42.512,16.437 -42.512,45.243 0,28.046 14.88,43.532 42.17,43.532 5.896,0 10.696,-0.332 18.307,-1.351 z"
       id="path2" />
    <path
       d="m 255.187,84.26 v 122.263 c 0,42.105 -3.154,62.353 -12.411,79.81 -8.64,16.783 -20.022,27.366 -43.541,39.055 l -49.438,-23.297 c 23.519,-10.93 34.901,-20.588 42.17,-35.327 7.61,-15.072 10.01,-32.529 10.01,-78.445 V 84.261 h 53.21 z M 196.608,0 h 53.278 v 54.135 h -53.278 z"
       id="path4" />
  </g>
</svg>
